<svg width="32" height="32" viewBox="0 0 32 32" xmlns="http://www.w3.org/2000/svg">
  <defs>
    <linearGradient id="metal" x1="0" y1="0" x2="1" y2="1">
      <stop offset="0%" stop-color="#f5f5f5"/>
      <stop offset="50%" stop-color="#bfbfbf"/>
      <stop offset="100%" stop-color="#8a8a8a"/>
    </linearGradient>
  </defs>

  <path
    d="M16 3
       C9 3 4 8 4 15
       C4 22 9 27 16 27
       C18.5 27 20.7 26.3 22.6 25.1
       L27 29
       L29 27
       L24.6 23.1
       C26.2 21.3 27 18.8 27 15
       C27 8 22 3 16 3
       Z
       M16 7
       C20.4 7 24 10.6 24 15
       C24 17.4 23 19.5 21.4 21
       C19.9 22.4 18.1 23 16 23
       C11.6 23 8 19.4 8 15
       C8 10.6 11.6 7 16 7
       Z"
    fill="url(#metal)"/>
</svg>
